<?xml version="1.0" encoding="utf-8"?>
<!-- Generator: Adobe Illustrator 16.0.0, SVG Export Plug-In . SVG Version: 6.00 Build 0)  -->
<!DOCTYPE svg PUBLIC "-//W3C//DTD SVG 1.1//EN" "http://www.w3.org/Graphics/SVG/1.1/DTD/svg11.dtd">
<svg version="1.1" id="Layer_1" xmlns="http://www.w3.org/2000/svg" xmlns:xlink="http://www.w3.org/1999/xlink" x="0px" y="0px"
	 width="215.949px" height="202.25px" viewBox="0 0 215.949 202.25" enable-background="new 0 0 215.949 202.25"
	 xml:space="preserve">
<g>
	<ellipse fill="#0D0707" cx="86.449" cy="16.875" rx="0.75" ry="0.875"/>
	<ellipse fill="#0D0707" cx="39.449" cy="87.764" rx="1" ry="1.986"/>
	<ellipse fill="#0D0707" cx="104.449" cy="43.625" rx="1" ry="0.875"/>
	<ellipse fill="#0D0707" cx="108.824" cy="47" rx="0.875" ry="0.75"/>
	<ellipse fill="#0D0707" cx="145.324" cy="1.25" rx="1.125" ry="1.25"/>
	<ellipse fill="#0D0707" cx="187.324" cy="115.5" rx="1.625" ry="1.5"/>
	<circle fill="#0D0707" cx="215.324" cy="109.125" r="0.625"/>
	<circle fill="#0D0707" cx="211.199" cy="38.75" r="0.75"/>
	<ellipse fill="#0D0707" cx="193.949" cy="54.875" rx="1.25" ry="0.875"/>
	<circle fill="#0D0707" cx="78.824" cy="95.239" r="0.75"/>
	<circle fill="#0D0707" cx="108.574" cy="106.271" r="1.5"/>
	<circle fill="#0D0707" cx="142.574" cy="147.125" r="0.875"/>
	<ellipse fill="#0D0707" cx="135.324" cy="152.25" rx="0.875" ry="0"/>
	<ellipse fill="#0D0707" cx="137.887" cy="100.646" rx="0.938" ry="0.875"/>
	<ellipse fill="#0D0707" cx="174.699" cy="202" rx="0" ry="0.25"/>
	<g>
		<path d="M2.079,54.179c0,0,8.622,0.059,9.201,5.182c0.581,5.122,0.469,6.518,0.469,6.518s5.115-12.414,9.736-12.73
			c4.622-0.317,5.427,1.899,5.831,2.715c0.406,0.819-0.093,13.381-0.093,13.381s9.452-16.223,12.934-14.919
			c0,0,8.325-1.106,5.246,13.184c-3.075,14.29-5.64,14.156-4.549,19.515c1.094,5.361,0.971,8.035,0.971,8.035
			s-1.573,4.875-3.299,2.072c-1.727-2.805-3.629-9.564-3.676-17.71c-0.045-8.146,2.692-17.9,2.692-17.9s-5.165,4.736-9.023,13.436
			c-3.859,8.7-2.223,13.83-4.674,17.303c-2.451,3.473-5.027,5.083-5.917,0.308c-0.892-4.776,4.164-38.018,1.259-33.617
			c-2.904,4.402-5.913,8.917-6.558,13.218c-0.646,4.302,0.595,17.806-1.995,21.046c-2.588,3.242-5.677,4.615-7.086,0.532
			c-1.408-4.081-1.689-22.699-2.672-28.99C-0.106,58.467-0.866,53.851,2.079,54.179z"/>
		<path d="M144.13,67.285c6.347,0.044,4.404,1.31,5.716,4.578c1.312,3.267-5.271,5.434-4.281,10.559
			c0.989,5.125,0.462,7.217,2.721,7.231c2.258,0.016,3.828-4.277,4.952-3.571c1.124,0.705,1.643-0.105,1.011,1.985
			c-0.629,2.09-3.02,6.493-9.178,6.451c-6.159-0.043-8.66-9.252-8.429-13.09C136.875,77.591,141.462,67.268,144.13,67.285z
			 M143.584,71.937c-0.564,1.211-0.234,4.303,0.989,5.359c1.224,1.055,1.759-2.082,2.646-4.112c0.887-2.029-2.188-2.517-2.188-2.517
			S143.799,71.479,143.584,71.937z"/>
		<path d="M62.378,66.159c5.115-0.845,6.234,0.218,6.511,4.671c0.277,4.453-0.763,21.199,1.405,19.47
			c2.166-1.731,4.947-14.103,6.792-13.653c1.845,0.449,1.45,1.842,1.366,2.801c-0.082,0.959-5.905,19.07-10.124,16.685
			c-4.217-2.386-5.907-2.417-5.991-12.427c-0.085-10.011-3.367,7.737-7.575,3.781c-4.205-3.956-3.695-4.477-3.408-7.877
			c0.29-3.437,1.433-6.709,3.372-8.877C56.665,68.563,60.239,66.512,62.378,66.159z M54.521,77.972
			c-0.717,3.311-0.182,4.013,0.878,6.463c1.062,2.451,2.547-0.767,4.262-3.809c1.715-3.043,2.341-7.335,0.672-8.024
			C58.337,71.779,55.236,74.662,54.521,77.972z"/>
		<path d="M190.384,95.073c-1.646,0.571-5.771,3.336-7.571-3.426c-1.801-6.762,0.004-15.474-2.164-13.627
			c-2.169,1.846-4.229,2.877-4.266,8.23c-0.037,5.354,0.326,11.986-3.451,9.4c-3.781-2.585-4.918-1.197-4.97-8.877
			c-0.046-7.678-0.316-13.149,1.654-16.393c1.973-3.244,1.146-2.667,3.51-2.884c0,0,4.306,0.844,4.176,4.682
			c-0.129,3.839-0.129,3.839-0.129,3.839s-4.033,4.276,0,0c4.034-4.277,1.471-4.875,5.269-4.617
			c3.794,0.257,4.598,2.708,5.766,12.257c1.163,9.548-0.288,7.722,1.425,8.196c0,0,1.575,0.578,1.413,1.689
			C190.884,94.654,190.384,95.073,190.384,95.073z"/>
		<path d="M94.626,48.512c0,0,5.546,0.038,5.676,2.374c0.13,2.337-3.737,12.673-3.614,16.031c0.123,3.358-0.471,25.686,1.286,24.968
			c1.756-0.718,3.425-9.755,5.024-9.015c1.602,0.74,0.861,2.195,0.861,2.195s-2.564,11.952-6.643,10.609
			c-4.078-1.342-7.139-1.802-7.982-6.332c-0.846-4.53,0.656-10.651-1.124-6.429c-1.78,4.22-4.301,9.749-7.213,8.707
			c-2.911-1.042-5.826-1.792-5.783-7.922c0.043-6.129,3.895-14.276,7.679-12.791c3.785,1.485,6.841,5.594,6.854,2.236
			c0.014-3.356-1.849-5.559,0.091-12.989C91.678,52.724,94.626,48.512,94.626,48.512z M79.314,88.544
			c0.425,1.755,1.904-1.009,4.119-3.183c2.217-2.172,4.26-5.37,4.124-6.976c-0.134-1.607,0.886-1.454-2.904-2.063
			c-3.791-0.61-5.317,9.012-5.317,9.012S78.888,86.79,79.314,88.544z"/>
		<g>
			<path d="M155.121,73.045c0,0,6.646-3.736,7.377,0.051c0.729,3.788-4.857,18.502-2.578,17.195
				c2.277-1.309,7.27-11.866,8.969-11.476c1.7,0.39,3.054-0.219,2.262,1.34c-4.34,8.517-8.243,15.642-11.832,15.05
				c-3.59-0.593-6.431-0.045-6.19-7.609C153.371,80.031,155.121,73.045,155.121,73.045z"/>
			<path d="M159.355,62.483c2.147-0.68,5.146,0.036,3.783,3.052c-1.367,3.017-1.501,4.205-3.831,3.776
				c-2.133-0.392-3.498-0.233-3.003-3.229C156.78,63.21,159.355,62.483,159.355,62.483z"/>
		</g>
		<path d="M109.106,67.799c6.347,0.044,4.404,1.31,5.715,4.577c1.312,3.268-5.27,5.433-4.281,10.559
			c0.99,5.125,0.463,7.216,2.722,7.231c2.258,0.016,3.828-4.277,4.952-3.572c1.124,0.705,1.641-0.104,1.012,1.986
			c-0.631,2.091-3.021,6.493-9.179,6.45c-6.159-0.043-8.662-9.25-8.43-13.089S106.438,67.78,109.106,67.799z M108.56,72.45
			c-0.563,1.211-0.233,4.303,0.99,5.358c1.224,1.056,1.758-2.082,2.645-4.111c0.888-2.029-2.188-2.517-2.188-2.517
			S108.774,71.993,108.56,72.45z"/>
		<path d="M127.85,49.152c2.326,2.581,7.877,4.328,6.984,9.878c-0.894,5.551-4.975,8.515-4.776,10.653
			c0.199,2.137-0.782,20.296,1.996,20.315c2.778,0.02,5.58-3.38,5.58-3.38l1.271,1.72c0,0-3.038,6.603-7.522,5.931
			c-4.482-0.672-8.523-3.478-9.134-7.97c-0.609-4.493-1.149-16.062,0.174-25.003C123.85,51.655,125.622,46.683,127.85,49.152z
			 M129.262,61.342c-0.344,3.204,0.084,3.207,1.106,3.32c1.024,0.114,2.634-3.399,2.861-5.429c0.227-2.03-2.805-2.584-2.805-2.584
			S129.604,58.139,129.262,61.342z"/>
		<path d="M200.508,67.677c6.347,0.044,4.404,1.31,5.715,4.578c1.312,3.267-5.271,5.433-4.28,10.559
			c0.989,5.126,0.461,7.217,2.72,7.232c2.259,0.016,3.828-4.278,4.953-3.572c1.125,0.706,1.642-0.104,1.011,1.986
			c-0.63,2.09-3.02,6.493-9.179,6.45s-8.661-9.251-8.43-13.089C193.252,77.982,197.84,67.658,200.508,67.677z M199.961,72.328
			c-0.563,1.21-0.234,4.303,0.99,5.359c1.224,1.055,1.759-2.083,2.644-4.112c0.889-2.03-2.188-2.517-2.188-2.517
			S200.175,71.87,199.961,72.328z"/>
		<path d="M95.943,112.119c5.113-0.846,6.234,0.218,6.512,4.67c0.277,4.453-0.764,21.199,1.404,19.469
			c2.168-1.729,4.947-14.102,6.792-13.653c1.845,0.45,1.45,1.843,1.366,2.803c-0.084,0.959-5.907,19.069-10.123,16.684
			c-4.218-2.386-5.909-2.418-5.993-12.427c-0.084-10.01-3.365,7.737-7.572,3.781c-4.207-3.956-3.696-4.476-3.409-7.876
			c0.289-3.437,1.432-6.71,3.371-8.878C90.229,114.522,93.805,112.473,95.943,112.119z M88.086,123.933
			c-0.715,3.311-0.181,4.013,0.881,6.463c1.06,2.451,2.545-0.767,4.26-3.811c1.714-3.042,2.341-7.334,0.672-8.023
			C91.902,117.738,88.803,120.622,88.086,123.933z"/>
		<path d="M50.989,101.172c0.162-0.893,8.137,0.84,9.208,4.606c1.069,3.766-2.444,13.451,0.722,8.619
			c3.166-4.833,6.971-11.383,9.945-11.52c2.978-0.137,7.177,4.042,7.478,5.729c0.304,1.686,2.676,20.807,1.082,24.711
			s-8.99,15.285-14.162,12.587c-5.17-2.697-6.257-3.959-6.401-5.682c-0.146-1.725,12.911-9.934,13.87-12.746
			c0.959-2.813,2.821-22.845-0.641-20.52c-3.461,2.325-10.883,11.044-10.895,12.766c-0.012,1.723,1.344,9.562-2.156,17.212
			c-3.497,7.648-2.258,9.549-6.015,9.281c-3.756-0.268-5.95-0.125-5.914-5.293c0.036-5.167,3.677-10.624,3.729-17.984
			C50.889,115.58,50.022,106.468,50.989,101.172z M63.105,138.998c-1.364,1.598,1.232,1.73,4.689,0.033
			c3.458-1.699,3.367-5.954,1.918-5.625C67.814,133.84,65.441,136.26,63.105,138.998z"/>
		<g>
			<path d="M133.517,119.427c0,0,7.151-4.021,7.938,0.056c0.785,4.077-5.227,19.911-2.774,18.503
				c2.451-1.408,7.822-12.769,9.65-12.349c1.83,0.42,3.287-0.235,2.434,1.442c-4.67,9.166-8.87,16.833-12.732,16.195
				c-3.863-0.638-6.92-0.049-6.659-8.188C131.632,126.946,133.517,119.427,133.517,119.427z"/>
			<path d="M138.072,108.061c2.311-0.731,5.539,0.039,4.071,3.286c-1.471,3.246-1.616,4.524-4.122,4.064
				c-2.296-0.422-3.766-0.252-3.232-3.476C135.301,108.844,138.072,108.061,138.072,108.061z"/>
		</g>
		<path d="M152.024,112.025c2.112,0.02,9.882,1.828,7.688,3.494c-0.967,0.737-1.419,0.89-1.831,0.632
			c-2.532-1.583-4.173-2.871-4.504-1.614c-0.333,1.258,6.764,8.94,6.595,14.101c-0.17,5.16-3.114,16.804-10.241,15.627
			c-4.337-0.715-4.419-3.18-3.952-4.005c0.959-1.694,1.852-3.536,1.852-3.536s3.018-0.624,2.252,0.984
			c-0.762,1.607-2.337,3.719-1.168,3.773c2.052,0.097,3.97-0.906,3.776-3.811c-0.193-2.904-6.715-12.572-6.677-18.055
			C145.854,114.133,147.63,111.984,152.024,112.025z"/>
		<path d="M111.266,116.505c1.474-1.147,7.189-0.039,7.361,1.816c0.173,1.856-0.186,13.333,1.492,10.961
			c1.676-2.373,6.225-17.013,8.78-16.453c2.081,0.456,2.206,0.898,2.019,1.603c-0.19,0.705-7.573,14.96-8.436,19.635
			c-0.862,4.673-0.793,8.027-4.108,7.388c-3.314-0.642-6.344-2.427-6.594-6.315c-0.25-3.888-1.031-10.693-1.011-13.606
			C110.788,118.62,110.241,117.3,111.266,116.505z"/>
	</g>
	<ellipse fill="#0D0707" cx="28.712" cy="111.13" rx="0.625" ry="0.75"/>
	<circle fill="#0D0707" cx="45.337" cy="134.38" r="0.75"/>
	<ellipse fill="#0D0707" cx="28.087" cy="150.505" rx="1.25" ry="0.875"/>
	<ellipse fill="#0D0707" cx="50.199" cy="166.692" rx="1.625" ry="1.5"/>
	<circle fill="#0D0707" cx="78.199" cy="160.317" r="0.625"/>
	<ellipse fill="#0D0707" cx="57.449" cy="53.89" rx="1.625" ry="1.5"/>
	<circle fill="#0D0707" cx="136.074" cy="37.75" r="0.875"/>
	<path d="M95.805,20.98c0,0,0.177-3.549,5.22-2.241s4.993,1.682,5.484,3.175c0.492,1.494,2.174,2.242,1.24,4.856
		c-0.935,2.615-1.308,5.79-4.483,5.977c-3.175,0.188-6.331-0.56-7.461-3.922C94.674,25.463,95.805,20.98,95.805,20.98z"/>
	<path d="M130.654,34.652c0,0,0.132-2.634,3.874-1.664s3.705,1.248,4.07,2.356c0.365,1.109,1.613,1.664,0.919,3.604
		c-0.692,1.941-0.969,4.297-3.326,4.436c-2.355,0.139-4.698-0.416-5.537-2.911C129.814,37.979,130.654,34.652,130.654,34.652z"/>
	<path d="M136.313,42.863c0,0,0.091-1.817,2.672-1.147c2.583,0.669,2.558,0.861,2.809,1.626c0.252,0.765,1.112,1.148,0.635,2.486
		c-0.479,1.338-0.67,2.964-2.296,3.06c-1.625,0.096-3.24-0.286-3.819-2.008C135.735,45.159,136.313,42.863,136.313,42.863z"/>
	<path d="M20.432,106.171c0,0,0.091-1.834,2.697-1.159c2.604,0.676,2.578,0.869,2.832,1.641c0.255,0.771,1.123,1.158,0.641,2.508
		c-0.482,1.351-0.676,2.991-2.316,3.087c-1.64,0.097-3.27-0.29-3.854-2.026C19.848,108.486,20.432,106.171,20.432,106.171z"/>
	<path d="M48.842,156.6c0,0,0.131-1.665,3.809-1.051c3.677,0.613,3.64,0.788,3.999,1.489c0.358,0.698,1.584,1.05,0.904,2.274
		c-0.682,1.225-0.955,2.714-3.271,2.802c-2.314,0.088-4.615-0.262-5.441-1.837C48.02,158.7,48.842,156.6,48.842,156.6z"/>
</g>
</svg>
