<?xml version="1.0" ?><svg enable-background="new 0 0 32 32" version="1.1" viewBox="0 0 32 32" xml:space="preserve" xmlns="http://www.w3.org/2000/svg" xmlns:xlink="http://www.w3.org/1999/xlink"><g id="Flat_copy"><path d="M17,0v8h8v5h-8v8c0,1.858,0.177,3.35,0.374,3.878c0.197,0.526,0.562,0.946,1.099,1.264c0.711,0.426,1.52,0.64,2.434,0.64   c1.623,0,3.511-0.552,5.094-1.781v5c-1.333,0.834-2.862,1.352-3.973,1.611C20.917,31.87,19.716,32,18.426,32   c-1.349,0-2.652-0.148-3.886-0.556c-1.127-0.37-1.756-0.78-2.552-1.463c-0.794-0.686-1.181-1.374-1.488-2.147   C10.193,27.065,10,25.466,10,24V13H6V8c1.281-0.094,2.34-0.455,3.234-1.216c0.901-0.766,1.621-1.683,2.162-2.754   C11.941,2.958,12,1.646,12,0H17z"/></g></svg>